<svg xmlns="http://www.w3.org/2000/svg" width="400" height="225"><g fill-rule="evenodd"><path d="M0 168.75V225h400V112.5h-61.042v16.817l1.302.124c.717.068 9.084.607 18.594 1.197l17.292 1.074 2.969 1.582 2.968 1.581v61.175l-.528-.133c-.29-.073-9.97-2.679-21.51-5.79l-20.982-5.658-.105-26.349-.104-26.349-13.333-.976c-7.333-.537-13.826-.983-14.427-.99l-1.094-.013v38.925l-1.771 3.28c-.974 1.804-1.771 3.359-1.771 3.454 0 .255.653.419-12.812-3.221l-12.5-3.38-.053-20.667-.053-20.666.782-.206c.43-.112 1.72-.44 2.866-.727l2.083-.522 9.479.613c5.214.337 9.643.613 9.844.615.34.002.364-.489.364-7.394V112.5h-38.541l-2.188 1.587c-2.364 1.714-2.341 1.677-1.864 3.022.177.502.791 2.673 1.363 4.826l1.041 3.913-.634 4.389c-.348 2.414-.586 4.465-.529 4.558.058.093.002.204-.123.245-.125.042-.243.471-.261.954-.019.483-.093.879-.164.88-.192.002-.642 2.472-.494 2.712.07.113.04.206-.066.206-.107 0-.303.556-.437 1.237l-.243 1.236 1.257 3.306c.692 1.818 1.258 3.399 1.258 3.513 0 .399-5.285 2.365-7.991 2.974l-2.678.602-1.413 1.401c-1.257 1.248-1.44 1.534-1.667 2.601-.365 1.72-.251 1.662-2.605 1.327-1.146-.162-2.294-.258-2.552-.213-.258.046-.469-.01-.469-.124 0-.121-.345-.161-.833-.095-.463.062-.833.024-.833-.085 0-.581-6.16 1.054-6.735 1.787-.118.151-.204.141-.275-.032-.057-.139-1.781-1.808-3.833-3.709l-3.73-3.457-4.432.854c-2.438.469-4.558.873-4.711.896-.182.028-.932-1.59-2.156-4.644-1.032-2.578-1.973-4.748-2.092-4.821a.254.254 0 01-.083-.347c.073-.117.036-.246-.083-.285-.514-.172-1.274-4.028-1.984-10.068-.404-3.438-.773-6.363-.821-6.501-.047-.138.181-.475.508-.75l.594-.5-.63-1.125c-.603-1.074-.632-1.239-.657-3.728l-.026-2.604 1.075-2.969 1.076-2.969H200v4.955c0 4.103-.074 5.367-.431 7.344l-.431 2.389-1.53 1.562c-1.26 1.288-1.748 2.001-2.78 4.063-1.058 2.112-1.483 2.725-2.745 3.958-1.255 1.226-1.693 1.855-2.751 3.954-1.047 2.077-1.555 2.812-3.028 4.375-1.501 1.594-1.969 2.278-3.087 4.508l-1.317 2.628-.974.245c-1.669.42-4.075.096-6.617-.893l-2.209-.859-11.102-9.988-11.102-9.988-.99-2.805-.989-2.806V112.5l-14.74.007-14.739.008.54.461c3.021 2.579 5.152 4.481 5.466 4.879.209.265.452.438.54.384.087-.054.365.183.618.525.254.342.535.577.625.521.091-.056.372.178.625.521.254.342.543.571.644.509.234-.145.517.291.54.831.01.229.447 1.776.971 3.437l.953 3.021.195 4.545c.373 8.668.028 12.756-1.707 20.247-.026.114-.12.562-.209.994-.138.671-.578 1.154-3.003 3.303-3.602 3.192-5.181 4.911-7.007 7.628l-1.458 2.17-4.063 1.658c-5.796 2.366-14.333 4.757-41.354 11.584L31.53 189.796c-16.285 4.117-19.955 4.973-20.212 4.717-.062-.062-.376-1.998-.698-4.302l-.585-4.19.512-4.625c.282-2.544.461-4.828.4-5.077-.062-.248-.024-.482.084-.521.108-.038.219-.514.247-1.058.027-.545.132-.99.232-.99.099 0 .13-.082.068-.183-.062-.101.529-1.576 1.315-3.277l1.427-3.094 10.288-1.723c5.658-.948 15.725-2.615 22.371-3.706 21.16-3.472 30.214-5.074 38.247-6.768l7.83-1.651 5.712-2.641 5.711-2.641 1.734-4.384 1.734-4.383-1.055-2.381c-.58-1.309-1.003-2.464-.94-2.566.063-.102.009-.185-.119-.185s-.175-.094-.104-.209c.071-.114.024-.208-.104-.208s-.175-.094-.104-.208c.071-.115.019-.209-.114-.209-.134 0-.195-.126-.136-.28.059-.154-.095-.64-.342-1.081l-.45-.801-5.625-1.317-5.625-1.318-10.521.21c-5.786.115-13.192.267-16.458.338l-5.937.128-6.667-.858c-3.667-.472-6.854-.9-7.083-.952-.23-.052-2.808-1.562-5.73-3.355-5.793-3.555-9.38-5.662-9.8-5.757-.148-.033-.444-.228-.659-.433-.214-.205-.48-.316-.59-.248-.11.068-.201.009-.201-.131 0-.141-.054-.201-.121-.134s-.305-.062-.529-.286c-.223-.223-.497-.351-.607-.282-.111.068-.201.027-.201-.092 0-.27-1.151-.88-1.328-.703-.072.071-.13.023-.13-.108 0-.282-1.142-.912-1.323-.731-.069.069-.185-.028-.257-.215-.072-.188-.215-.289-.317-.226-.103.063-.187.01-.187-.118s-.093-.175-.208-.104c-.115.071-.208.024-.208-.104s-.093-.176-.206-.106c-.113.07-.413-.299-.667-.821l-.46-.948H0v56.25m168.755-54.115c.005 2.327 1.331 8.382 1.906 8.705.935.525 4.35 3.528 4.559 4.008.138.318.323.622.411.676.088.055 1.435-1.492 2.994-3.438l2.834-3.536.729-2.659c.542-1.976.729-3.073.729-4.274V112.5H168.75l.005 2.135m62.287-1.333c0 .441.106 1.108.236 1.481.184.526.178.715-.024.84-.165.101-.231.477-.179 1.019.045.472-.003.858-.106.858-.104 0-.144.469-.089 1.042.059.611.016 1.041-.104 1.041s-.161.391-.1.938c.062.544.021.937-.098.937-.113 0-.17.415-.129.938.041.515.004.937-.083.937-.087 0-.158.223-.158.495s-.605 1.772-1.345 3.333c-.74 1.562-1.262 2.839-1.159 2.839.103 0 .18.164.172.365-.021.499.679 5.497.823 5.885.064.172.101.416.082.542-.099.648 2.999 1.16 6.951 1.149l3.851-.01.335.512c.185.281.413.464.507.406.094-.058.319.104.498.361.18.256.327.387.327.29 0-.097.131-.067.292.066.239.198.488-.099 1.365-1.633 1.221-2.133 1.42-3.09 2.409-11.579.393-3.371 1.714-10.555 2.229-12.117.032-.096-.223-.526-.566-.956l-.625-.781h-15.312v.802" fill="#040404"/><path d="M360.104 47.909l-21.041 4.737-.053 26.385-.053 26.386-1.822.002c-2.411.002-23.215.569-27.395.745l-3.282.139V83.152c0-12.734-.051-23.152-.115-23.152-.063 0-5.761 1.266-12.663 2.813-6.901 1.546-12.615 2.812-12.697 2.812-.177 0-.205 40.654-.029 41.113.083.218.323.286.781.224.93-.127 24.56-.737 24.66-.636.289.289.318 20.961.03 21.072-.17.065-4.662-.162-9.982-.504l-9.672-.622-2.708.679-2.709.679-.053 20.522-.053 20.522 12.241 3.299c6.732 1.814 12.404 3.342 12.605 3.395.345.092.364-1.103.364-22.97V129.33l.482.121c.265.066 1.273.125 2.24.131 2.933.016 29.447 1.928 29.726 2.143.206.159.261 5.683.261 26.383v26.182l19.218 5.18 21.355 5.755 2.136.575-.052-30.439-.053-30.439-2.813-1.502-2.812-1.501-17.292-1.071c-9.51-.589-17.823-1.126-18.473-1.193-1.176-.121-1.182-.119-1.271.476-.049.329-.103-5.087-.12-12.036l-.032-12.635 2.969-.128c2.919-.126 33.227-.918 37.813-.988l2.343-.036V43.125l-.468.023c-.258.013-9.938 2.155-21.511 4.761M41.182 57.283a333.39 333.39 0 01-10.833 4.899 3882.566 3882.566 0 00-5.93 2.524c-.615.265-.939.809-3.184 5.346l-2.5 5.052-.518 7.136-.518 7.135.516 7.094.516 7.094 1.702 3.687c.937 2.028 2.087 4.403 2.557 5.276l.853 1.589 3.207 1.599c1.763.88 3.246 1.559 3.296 1.509.255-.254-2.356-1.805-4.269-2.535l-2.182-.834-.516-1.657c-1.297-4.169-2.254-8.825-2.09-10.176.086-.711.219-2.065.296-3.011.134-1.645.365-2.135.639-1.354.071.201.588 1.543 1.15 2.982l1.022 2.617 2.697 1.615c3.032 1.815 3.115 1.82 3.115.16 0-.853.244-1.909.851-3.686l.85-2.49-.134-4.91-.134-4.91.639-2.462c.352-1.354 1.016-4.628 1.477-7.277 1.169-6.73 1.068-6.44 2.94-8.427 1.566-1.662 1.653-1.718 5.104-3.319 2.012-.933 4.45-2.26 5.709-3.107 1.464-.985 3.097-1.847 4.895-2.584 3.968-1.626 4.27-1.843 5.427-3.903 1.138-2.029 1.63-2.355 3.172-2.105 6.094.986 20.932 3.772 29.934 5.619l21.875 4.487c11.586 2.375 11.286 2.311 11.511 2.45.118.073 6.597 2.104 9.494 2.976.85.256.317-1.024-.648-1.555-.969-.533-.714-.477-21.503-4.722L87.813 60.23c-15.09-3.087-26.435-5.021-29.477-5.025-2.269-.003-8.592-.299-10.628-.499-.857-.084-1.418.138-6.526 2.577m114.756 17.296c-3.37.491-5.803 1.554-6.165 2.694-.131.411-.617 1.729-1.081 2.929l-.843 2.181.13 21.361.131 21.36 1.022 2.917 1.023 2.917 1.745.428c1.273.312 2.19.405 3.386.34l1.641-.087-.142-1.174c-.179-1.48-.124-52.088.059-54.176l.135-1.543 1.771.036c.974.02 2.286.08 2.917.134l1.146.097-1.25-.41c-1.484-.487-2.308-.488-5.625-.004m94.559.195c-1.302.513-1.542.55-1.979.308-.732-.405-.803-.381-2.165.724-1.015.824-4.656 2.527-5.403 2.527-.045 0-.619-.773-1.276-1.718a347.04 347.04 0 00-1.237-1.775c-.043-.057-18.714 3.274-18.767 3.349-.016.022-.738 1.108-1.606 2.413l-1.577 2.373 1.548 2.044c1.958 2.586 2.045 2.258-1.316 5.002-1.576 1.286-2.982 2.482-3.125 2.657-.195.238-.261 1.824-.261 6.301v5.983l1.771 2.121c2.01 2.408 1.908 2.136 1.338 3.583-.238.603-.465 1.353-.504 1.666-.04.313-.548 1.924-1.13 3.58-1.105 3.144-1.269 4.363-.926 6.869l.132.963 1.024-.751c.563-.413 1.05-.717 1.083-.674.033.042.734 1.591 1.559 3.441l1.499 3.365-.533 1.416c-.293.778-.566 1.449-.607 1.49-.041.041-.751-1.22-1.577-2.801-1.766-3.379-1.593-3.147-2.028-2.712-.325.325-.302.744.335 6.342 1.019 8.946 1.26 9.791 3.876 13.569l2.112 3.05 3.632.23c3.361.212 12.781 1.977 13.298 2.491.069.069.172 1.652.23 3.518l.104 3.393 2.477-2.911c2.807-3.299 2.804-3.078.042-3.608-1.042-.199-2.053-.419-2.246-.488-.291-.103.067-.8 2.083-4.052l2.436-3.927 3.997-1.616 3.997-1.616.795.822c.436.451 2.067 2.027 3.623 3.502l2.829 2.681.463-4.056.462-4.056 2.467-5.153c1.357-2.835 2.407-5.262 2.334-5.393-.074-.132-2.454-2.735-5.29-5.785-2.836-3.05-5.157-5.625-5.157-5.722 0-.097 1.058-1.525 2.35-3.173l2.349-2.997 5.203-.161c2.861-.089 5.507-.131 5.88-.094.375.037.678-.031.679-.152.001-.12-.15-3.767-.336-8.104l-.338-7.886-2.477-3.778-2.476-3.778v6.75l-2.53 3.914c-1.392 2.152-2.64 4.034-2.775 4.181-.19.208-.539-1.172-1.562-6.181-.725-3.547-1.379-6.549-1.455-6.672-.091-.147-1.098.124-2.94.791-4.116 1.491-4.132 1.474-.613-.61 1.776-1.053 3.396-2.073 3.601-2.268.408-.389 1.312-5.44 1.081-6.042-.297-.773-4.57-7.305-4.772-7.294-.123.007-.89.274-1.705.595m-8.164 8.976c1.159 2.234 2.183 4.203 2.276 4.375.361.669 1.661 7.317 1.518 7.766-.423 1.328-1.878 14.369-1.628 14.599.142.131 2.138 1.833 4.433 3.781l4.174 3.542.009 2.274c.006 1.251-.027 2.235-.072 2.187-.045-.047-1.258-1.862-2.695-4.031-2.243-3.387-2.63-3.873-2.734-3.438-.938 3.908-1.672 7.965-2.089 11.539-.991 8.506-1.188 9.455-2.414 11.596-1.329 2.324-1.031 2.231-4.837 1.503l-3.17-.607 1.563-.338 1.562-.338-3.231.009c-3.088.009-3.315-.02-5.129-.642-2.339-.803-2.237-.806-2.758.077-.588.996-.758.956-3.696-.884-2.934-1.838-2.728-1.564-2.888-3.841l-.122-1.733 4.071-3.116c2.576-1.972 3.974-3.168 3.807-3.258-.144-.079-1.012-.352-1.929-.606-.916-.253-1.69-.483-1.72-.509-.029-.026.143-1.006.381-2.176l.435-2.129-.89-1.186a375.572 375.572 0 00-2.276-2.989l-1.387-1.802-2.166 4.026c-2.418 4.495-2.751 4.931-1.328 1.739.821-1.842.976-2.407 1.053-3.827.34-6.268.297-5.939.783-5.931.247.004 2.604.466 5.238 1.027 2.634.561 4.809.999 4.835.974.025-.026-.432-1.887-1.015-4.135l-1.062-4.089-1.274-.143c-.7-.079-2.934-.542-4.963-1.029l-3.69-.886-.477.512c-.262.282-1.127 1.089-1.921 1.794l-1.444 1.281.726-1.146c.399-.631 1.645-2.621 2.768-4.424l2.042-3.279 1.447-4.951a3936.5 3936.5 0 011.868-6.377c.231-.784.466-1.38.522-1.325.099.1-1.094 8.525-1.285 9.073-.076.219.118.255.893.162.545-.065 3.217-.23 5.938-.366l4.947-.247.18-.643c.099-.355.778-2.747 1.51-5.317l1.329-4.673 1.668-1.088c2.003-1.306 1.529-1.709 4.314 3.663m-52.125-2.173a127.5 127.5 0 00-3.955.988l-1.768.483-.792 2.591-.793 2.59.044 14.063.044 14.062-.666 2.357-.665 2.357-2.905 3.617-2.905 3.616 1.051 1.889c1.304 2.343.859 2.167 4.435 1.753 3.722-.431 3.304-.109 4.146-3.191l.707-2.59 2.168-1.3c1.192-.715 2.234-1.328 2.317-1.362.082-.035.406-1.516.72-3.292l.57-3.229.113-17.5.114-17.5 1.867.055c2.109.063 2.17-.154.186-.664-1.559-.4-1.362-.41-4.033.207m69.375.714c.218.307.543.679.72.826.54.448.375.677-1.72 2.386-1.111.906-1.88 1.595-1.708 1.531 3.41-1.278 7.151-3.702 6.585-4.268-.05-.05-1.032-.303-2.183-.563l-2.092-.471.398.559M60.223 93.646c0 .114.134.443.298.729.164.286.298.427.298.313 0-.115-.134-.443-.298-.73-.164-.286-.298-.427-.298-.312m.611 2.763c0 .145.187.94.416 1.767.498 1.798.519 2.524.104 3.699-.781 2.215-1.567 1.821 10.521 5.284l6.146 1.76 8.854.641c4.87.353 10.589.736 12.708.852 5.773.315 7.961.606 10.511 1.396 1.255.389 2.943.81 3.75.934.808.125 2.026.402 2.706.617.817.258 1.283.317 1.371.175.074-.118.526.345 1.006 1.029.481.685 1.082 1.31 1.338 1.389.255.079.699.303.985.497 1.143.775 3.347 1.871 3.186 1.585-.093-.168-.966-.974-1.938-1.791a110.014 110.014 0 01-3.901-3.5l-2.132-2.013-4.43-1.094-4.431-1.094-8.229-.516a3057.87 3057.87 0 01-14.479-.943l-6.25-.428-7.069-2.13-7.068-2.129-.832-1.814c-.457-.997-.903-1.769-.99-1.715-.088.055-.54-.536-1.005-1.311-.466-.776-.847-1.292-.848-1.147m167.91 2.277c-.789.54-.708.315-1.373 3.814-.123.648.511-.467 1.512-2.656.723-1.584.705-1.736-.139-1.158m29.381 14.733v1.614l1.073 1.233c.59.679 1.145 1.234 1.233 1.234.143 0-1.975-5.364-2.211-5.599-.052-.053-.095.631-.095 1.518m-87.431 10.418c.077.2.139.486.139.636 0 .15.774.669 1.719 1.155 1.823.936 1.812.883-.156-.762-1.595-1.333-1.886-1.509-1.702-1.029m-63.583 13.106l1.046 2.359-1.765 4.449-1.764 4.449-5.781 2.677-5.781 2.678-7.835 1.651c-8.266 1.742-15.586 3.04-37.002 6.562-7.219 1.187-17.778 2.936-23.464 3.886l-10.34 1.729-1.327 2.9c-.73 1.595-1.355 2.97-1.388 3.054-.034.085.388.07.937-.033.549-.103 6.202-1.08 12.561-2.171 6.36-1.091 15.547-2.769 20.417-3.727a2342.7 2342.7 0 0120.833-3.964c6.589-1.221 14.792-2.788 18.23-3.481a820.132 820.132 0 018.248-1.63c1.1-.204 2.271-.511 2.604-.683.333-.172 1.309-.521 2.168-.776.86-.254 3.103-1.213 4.985-2.131 2.856-1.392 3.683-1.703 5-1.878l1.578-.209 1.825-1.794c2.126-2.089 4.882-6.166 5.049-7.47a50.43 50.43 0 01.39-2.29l.289-1.503-1.973-1.756c-3.348-2.977-3.86-3.055-3.759-.571.078 1.925-.193 1.863-2.494-.579-2.581-2.739-2.795-2.702-1.487.252" fill="#fbfbfb"/><path d="M0 56.25v56.25h22.884l-2.076-4.462-2.076-4.461-.517-7.101-.516-7.101.518-7.135.518-7.136 2.5-5.052c2.246-4.538 2.569-5.081 3.184-5.346.377-.161 2.841-1.206 5.477-2.322 2.635-1.115 7.557-3.323 10.937-4.906l6.146-2.877 2.084.19c1.145.104 4.239.249 6.875.321 5.797.159 14.335 1.529 31.875 5.118l23.854 4.875c20.8 4.247 20.534 4.189 21.501 4.722l.891.492.382 2.705c.437 3.086.063 9.287-.64 10.622-1.031 1.957-1.718 2.812-2.261 2.812-.59 0-8.943-1.033-17.686-2.188-11.258-1.487-21.282-2.593-28.229-3.115l-7.187-.54-6.955 1.121c-5.884.949-6.99 1.182-7.186 1.516-.127.217-1.227 2.316-2.444 4.665l-2.213 4.271 2.442 5.094 2.442 5.095 6.982 2.126 6.982 2.126 6.329.441c3.481.242 9.985.665 14.454.94l8.125.5 4.479 1.093c4.343 1.059 4.511 1.12 5.543 1.995l1.064.902H147.917V82.141l.591-1.435c.325-.789.796-2.052 1.047-2.806l.456-1.371 1.921-.856c2.715-1.209 7.221-1.795 9.328-1.214 1.67.46 6.656 2.399 6.659 2.589.001.077.235 1.405.519 2.952l.516 2.813.002 14.843.002 14.844h13.959l.002-12.135.001-12.136.783-2.59.782-2.591 1.768-.482c5.005-1.365 6.423-1.583 7.902-1.212 1.091.274 5.22 1.917 5.22 2.078 0 .021.186 1.063.414 2.314.381 2.1.413 3.217.416 14.514l.003 12.24h15.57l.549-1.51c.303-.831.55-1.573.549-1.648-.001-.075-.798-1.092-1.772-2.259l-1.771-2.121v-5.983c0-4.477.066-6.063.261-6.301.143-.175 1.549-1.371 3.125-2.657 3.361-2.744 3.274-2.416 1.316-5.002l-1.548-2.044 1.577-2.373c.868-1.305 1.59-2.391 1.606-2.413.053-.075 18.724-3.406 18.767-3.349.024.031.58.829 1.237 1.775.657.945 1.231 1.718 1.276 1.718.747 0 4.388-1.703 5.403-2.527 1.362-1.106 1.433-1.13 2.165-.724.438.243.685.204 2.045-.32.851-.327 1.622-.595 1.713-.595.092 0 .845.82 1.674 1.823.828 1.002 2.3 2.688 3.27 3.745 1.887 2.057 1.743 1.979 4.89 2.66l1.589.344.147 1.703c.262 3.032.322 3.179 2.867 7.054l2.407 3.666.347 8.074c.191 4.441.272 8.138.18 8.217-.092.078-.438.346-.769.595l-.601.452h38.181v-5.417h-.762c-.42 0-4.709.105-9.532.232-8.985.237-14.794.036-15.171-.525-.197-.292-.209-41.165-.012-41.165.081 0 5.85-1.278 12.82-2.839 6.97-1.562 12.699-2.804 12.731-2.761.032.044.872 1.352 1.867 2.908l1.809 2.828v40.281l1.823-.006c1.003-.003 6.558-.141 12.344-.307s11.435-.304 12.551-.307l2.031-.005.053-26.385.053-26.385 21.25-4.761c11.687-2.618 21.367-4.761 21.51-4.761.207 0 .26 6.258.26 30.595v30.596l-2.793.557c-2.61.521-25.811 1.353-38.3 1.374l-1.823.003v6.25H400V0H0v56.25m236.644 39.045c-6.005 1.606-5.759 1.363-5.181 5.122.144.934.078 1.566-.359 3.427-.564 2.402-.403 8.33.233 8.574.125.048 3.48.063 7.454.033l7.227-.055-.889-1.071-.889-1.07.862-6.901.862-6.901-2.142-1.143c-2.562-1.368-2.121-1.367-7.178-.015" fill="#fc9c34"/><path d="M59.422 55.947c-.436.184-.884.749-1.59 2.008-1.157 2.06-1.459 2.277-5.427 3.903-1.798.737-3.431 1.599-4.895 2.584-1.259.847-3.697 2.174-5.709 3.107-3.451 1.601-3.538 1.657-5.104 3.319-1.872 1.987-1.771 1.697-2.94 8.427-.461 2.649-1.125 5.923-1.477 7.277l-.639 2.462.134 4.91.134 4.91-.85 2.49c-.607 1.777-.851 2.833-.851 3.686 0 1.66-.083 1.655-3.115-.16l-2.697-1.615-1.022-2.617a242.69 242.69 0 01-1.15-2.982c-.274-.781-.505-.291-.639 1.354-.077.946-.21 2.3-.296 3.011-.161 1.33.867 6.361 2.044 10.006.242.749.392 1.489.332 1.644-.06.155-.041.262.04.238.436-.131 4.654 1.671 5.622 2.402 1.527 1.153 1.247 1.169-.972.054-2.948-1.48-2.265-.997 2.218 1.569a376.686 376.686 0 018.105 4.802c7.783 4.772 8.424 4.704 2.26-.237-4.045-3.242-6.175-5.481-4.896-5.147.246.064.364.024.289-.097-.078-.127.198-.183.717-.146.572.041.971-.054 1.237-.295.508-.459.367-.486 2.429.471 2.8 1.299 11.767 1.947 14.049 1.015l.7-.286-1.533-1.456c-1.34-1.271-8.506-7.315-13.104-11.051l-1.555-1.264-1.088-4.465c-.599-2.456-1.274-5.842-1.501-7.524l-.413-3.059.602-3.92c1.237-8.06 1.643-10.157 2.021-10.433 1.03-.753 10.802-5.721 15.066-7.66l4.896-2.225 1.979-.054c12.8-.344 15.575-.352 17.5-.049 1.089.172 5.167.795 9.063 1.385 11.163 1.689 35.605 6.097 41.613 7.505 2.95.691 5.41 1.256 5.469 1.256.058 0 .105.203.105.451 0 .249.051.401.113.339.098-.098-.06-1.434-.432-3.644-.107-.636-.196-.692-1.928-1.213a437.825 437.825 0 01-5.148-1.61 677.122 677.122 0 00-3.542-1.124c-.115-.033-4.99-1.042-10.833-2.241l-21.875-4.489c-6.188-1.27-15.235-3.018-20.105-3.885-11.571-2.06-10.7-1.935-11.411-1.637m247.036 27.136v23.151l-1.823.081c-1.002.044-.229.037 1.719-.014 1.948-.052 3.612-.137 3.698-.189.086-.052.154-9.16.152-20.239l-.005-20.144-1.87-2.899-1.871-2.899v23.152M58.427 73.097c-.109.099-.807.49-1.552.87s-1.823 1.13-2.396 1.668c-.759.713-1.324 1.045-2.083 1.226-1.917.456-7.992 4.109-8.119 4.883-.058.358-.291 2.33-.516 4.381l-.41 3.729 2.127 2.818c1.169 1.55 3.238 3.95 4.596 5.334l2.47 2.515-.033 2.112-.033 2.112 3.259 2.992 3.259 2.992 1.804.371c6.372 1.307 9.2 1.743 9.2 1.416 0-1.103-8.729-6.679-10.465-6.684-.604-.002-1.617-.667-1.961-1.288-.394-.709-.344-.807.284-.568.435.165.617.148.782-.073.448-.604 1.168-.585 1.385.037.183.526.476.661 3.369 1.557 4.973 1.538 6.31 2.235 11.308 5.887a274.719 274.719 0 003.333 2.414c.107.065 2.257.227 4.778.36 3.749.198 5.221.372 8.086.959 2.638.539 4.026.716 5.618.716 2.664 0 9.576.375 11.504.624 1.283.165 1.521.267 1.979.849.286.363 2.884 3.064 5.773 6l5.252 5.34.741 3.437c.408 1.891.787 3.719.842 4.063l.285 1.764c.12.742.089 2.231-.088 4.271-.149 1.722-.34 4.254-.424 5.625-.105 1.724-.244 2.587-.451 2.794-.492.491-1.305 1.868-1.305 2.208 0 .457.278.398 1.619-.344.656-.363 1.709-.931 2.339-1.261 2.366-1.241 2.764-2.434 3.457-10.37.665-7.627.28-12.81-1.162-15.623-1.012-1.974-4.297-5.081-4.874-4.608-.154.126-.8-.225-1.9-1.032-.916-.673-1.917-1.279-2.224-1.347-.307-.069-1.666-.494-3.021-.946-1.388-.463-3.042-.864-3.789-.919-.73-.053-1.433-.184-1.563-.291-.13-.107-.471-.233-.757-.281-.343-.058-.414-.124-.208-.194 4.203-1.437 4.94-1.414 8.935.283 1.673.71 3.249 1.499 3.503 1.753.253.253 1.332.951 2.397 1.551 1.116.628 2.587 1.697 3.474 2.524 1.729 1.613 1.822 1.639 1.382.391-.173-.489-.271-.957-.22-1.04.052-.084-.576-.707-1.394-1.384-1.835-1.519-2.361-1.903-2.159-1.577.151.246-2.199-.958-3.21-1.644-.286-.194-.73-.418-.985-.497-.256-.079-.857-.704-1.338-1.389-.48-.684-.932-1.147-1.006-1.029-.088.142-.554.083-1.371-.175-.68-.215-1.898-.492-2.706-.617-.807-.124-2.495-.545-3.75-.934-2.55-.79-4.738-1.081-10.511-1.396-2.119-.116-7.838-.499-12.708-.852l-8.854-.641-6.146-1.76c-12.088-3.463-11.302-3.069-10.521-5.284.415-1.175.394-1.901-.104-3.699-.59-2.13-.527-2.218.438-.609 1.358 2.263 1.15 1.506-.549-1.999l-1.574-3.246 2.428-4.696c1.369-2.649 2.577-4.739 2.769-4.794.188-.054 2.047-.357 4.132-.672 2.224-.337 3.738-.657 3.666-.774-.125-.202-7.426-.03-8.75.206-.638.114-2.486 2.3-3.378 3.996-.14.266-1.053 1.618-2.03 3.004-.977 1.386-1.818 2.631-1.87 2.766-.051.134.47 1.599 1.159 3.255 2.796 6.717 2.265 7.484-.878 1.267l-2.451-4.85.499-.671c2.274-3.06 3.833-7.498 3.913-11.137.041-1.889.092-2.147.442-2.259.572-.181 1.199-1.323 1.2-2.184.001-1.138-1.34-2.272-1.989-1.682m98.48 1.799c-.075.114-.16 6.302-.189 13.75-.028 7.448-.075 19.149-.104 26.003-.028 6.854-.002 12.251.059 11.993.107-.456 1.414 1.033 5.612 6.394.845 1.08.477 1.042 5.591.588 2.097-.186 3.863-.287 3.925-.226.061.062-.079 1.874-.313 4.028-.233 2.153-.398 3.941-.367 3.973.032.032 1.598-.129 3.479-.358 4.821-.586 4.462-.574 4.464-.148.002.355 4.139 3.899 4.552 3.899.104 0 .365.202.58.45.597.688.603.668 1.339-4.797l.123-.91.715 1.014c.393.557.925 1.317 1.181 1.688.625.903.554.963 1.725-1.445.568-1.168 1.273-2.411 1.566-2.76.916-1.093 4.496-6.225 4.877-6.99.199-.401 1.05-1.433 1.889-2.292l1.527-1.562.436-2.396c.633-3.47.919-35.121.347-38.334-.625-3.508-.492-3.284-1.183-1.991a45.344 45.344 0 01-.988 1.764l-.384.632-.56-2.442-.559-2.442H192.188l-.114 17.5-.113 17.5-.57 3.229c-.314 1.776-.638 3.257-.72 3.292-.083.034-1.125.647-2.317 1.362l-2.168 1.3-.707 2.59c-.389 1.424-.798 2.646-.909 2.715-.296.182-6.241.846-6.446.72-.353-.218-2.281-3.909-2.152-4.118.076-.123.034-.155-.098-.074-.134.083-.367-.118-.553-.479-.236-.456-.868-.904-2.353-1.669l-2.03-1.046-.461-1.515c-.253-.833-.713-2.5-1.022-3.703l-.563-2.187.05-17.188.05-17.187-.538-2.948c-.295-1.621-.537-3.004-.537-3.073 0-.07-.863.823-1.918 1.983-2.227 2.449-2.02 2.547-2.673-1.275-.245-1.432-.476-2.634-.513-2.672-.191-.193-5.784-.326-5.906-.14m95.865-.193c.068.123 1.066 1.707 2.218 3.52 1.151 1.813 2.092 3.4 2.091 3.526-.015 1.287-.877 5.47-1.188 5.766-.205.195-1.825 1.215-3.601 2.268-3.519 2.084-3.503 2.101.613.61 1.842-.667 2.849-.938 2.94-.791.076.123.73 3.125 1.455 6.672 1.023 5.009 1.372 6.389 1.562 6.181.135-.147 1.383-2.029 2.775-4.181l2.53-3.914v-3.459c0-1.902-.111-4.52-.246-5.817l-.246-2.357-1.473 1.397c-1.435 1.362-1.96 1.648-5.327 2.91-.172.064.597-.625 1.708-1.531 2.466-2.012 2.482-1.593-.171-4.463a148.494 148.494 0 01-3.786-4.269c-1.725-2.056-2.048-2.416-1.854-2.068m-14.751 5.383l-1.667 1.088-1.505 5.286c-.828 2.908-1.484 5.304-1.458 5.324.025.021 1.16-.467 2.52-1.085 1.581-.718 3.514-1.385 5.354-1.849 3.342-.841 3.313-.838 3.335-.36.009.2.057.267.106.149.05-.118-.482-1.29-1.182-2.604a311.334 311.334 0 01-2.276-4.368c-1.508-2.97-1.273-2.855-3.227-1.581m-157.552.683c.2.052.528.052.729 0 .2-.053.036-.096-.365-.096-.401 0-.565.043-.364.096m2.708.208c.201.052.529.052.729 0 .201-.052.037-.095-.364-.095-.401 0-.565.043-.365.095m2.708.208c.201.053.529.053.73 0 .2-.052.036-.095-.365-.095-.401 0-.565.043-.365.095m2.607.212c.259.05.634.048.833-.004.2-.052-.012-.093-.471-.09-.458.002-.621.045-.362.094m2.602.205c.2.052.528.052.729 0 .2-.052.036-.095-.365-.095-.401 0-.565.043-.364.095m131.437 2.186c-.12.38-.883 2.988-1.696 5.795a625.56 625.56 0 01-1.571 5.376c-.16.469.279.061.972-.904 1.099-1.531.922-.936-.774 2.594-1.796 3.737-1.976 3.966-1.238 1.575.673-2.179.626-2.154-1.072.577-.802 1.29-1.958 3.141-2.568 4.115l-1.109 1.77 1.439-1.28c.792-.704 1.655-1.511 1.917-1.793l.477-.512 3.69.886c2.029.487 4.263.95 4.963 1.029l1.274.143 1.057 4.071 1.057 4.07-1.912 3.829c-1.051 2.106-1.959 3.829-2.018 3.828-.058 0-1.458-2.062-3.111-4.582-1.652-2.52-3.041-4.545-3.086-4.5-.253.253 1.762 3.563 3.838 6.306l2.392 3.16-.434 2.129a125.51 125.51 0 00-.435 2.182c0 .029.258.115.573.192 1.914.463 3.381.994 3.265 1.182-.089.145-.008.145.255.002.213-.116.637-.264.943-.328.518-.108.565-.212.692-1.523.074-.773.188-1.547.253-1.719.065-.172.099-.615.074-.984-.024-.37.014-.767.086-.882.071-.116.174-1.025.229-2.021.054-.996.192-1.924.306-2.061.139-.168.136-.441-.009-.822-.119-.315-.203-1.053-.185-1.64.018-.588-.088-2.388-.236-4.001-.26-2.835-.253-2.995.211-4.873.458-1.852.467-2.05.212-4.337l-.267-2.397.497-.411.497-.412-.521.303-1.51.878c-.982.571-1.283.843-.671.608.227-.087.118.316-.383 1.413-1.011 2.212-1.647 3.331-1.523 2.681l.354-1.844c.156-.815.422-1.485.692-1.744.436-.42.436-.421.006-.2-.454.233-7.02-6.025-6.846-6.524.167-.48 1.355-8.909 1.268-8.996-.052-.052-.193.216-.314.596m37.16 6.541c1.831 1.556 3.517 3.02 3.747 3.253l.416.424-.472-.242c-.398-.203-7.368-4.363-7.483-4.467-.1-.089.214-1.797.33-1.797.073 0 1.63 1.273 3.462 2.829m-29.219 1.695c.316.048.785.047 1.041-.002.257-.05-.003-.089-.575-.087-.573.001-.783.042-.466.089m-3.75.209c.316.048.785.046 1.041-.003.257-.049-.003-.089-.575-.087-.573.001-.783.042-.466.09m-3.75.208c.316.048.785.047 1.041-.003.257-.049-.003-.088-.575-.087-.573.002-.783.042-.466.09m12.861 2.183c-1.661.913-2.786 1.605-2.5 1.539.287-.066 2.256-.568 4.375-1.117l3.855-.997-1.25-.569c-.688-.313-1.297-.556-1.355-.541-.057.015-1.463.773-3.125 1.685m138.497 9.905c.605.042 1.543.042 2.083-.001.541-.043.045-.077-1.1-.077-1.146.001-1.589.036-.983.078m-7.917.208c.606.042 1.543.042 2.084-.001.54-.043.045-.077-1.101-.077-1.146.001-1.588.036-.983.078m-7.708.209c.605.042 1.543.041 2.083-.001.541-.043.045-.078-1.1-.077-1.146 0-1.589.035-.983.078m-7.917.208c.606.042 1.543.042 2.084-.001.54-.043.045-.077-1.101-.077-1.146.001-1.588.036-.983.078m-7.916.208c.605.042 1.542.042 2.083-.001.54-.043.045-.077-1.101-.077-1.146.001-1.588.036-.982.078m-3.828 3.596c0 2.006.031 2.826.069 1.823a56.824 56.824 0 000-3.646c-.038-1.002-.069-.182-.069 1.823m30.591-3.387c.659.041 1.737.041 2.396 0 .659-.042.12-.076-1.198-.076-1.317 0-1.856.034-1.198.076m-8.958.208c.659.041 1.737.041 2.396 0 .659-.041.12-.075-1.198-.075s-1.857.034-1.198.075m-8.958.208c.659.042 1.737.042 2.396 0 .658-.041.119-.075-1.198-.075-1.318 0-1.857.034-1.198.075m-8.959.209c.659.041 1.737.041 2.396 0 .659-.042.12-.076-1.198-.076-1.317 0-1.856.034-1.198.076m-46.972.416c.606.042 1.543.042 2.084-.001.54-.043.045-.077-1.101-.077-1.146.001-1.588.036-.983.078m-11.621.254l-2.813.113 2.604.263c1.433.145 3.964.241 5.625.215l3.021-.047-2.552-.066c-2.942-.075-3.423-.42-.729-.522l1.823-.07h-2.083c-1.146 0-3.349.051-4.896.114m13.802.371c.659.042 1.737.042 2.396 0 .658-.041.119-.075-1.198-.075-1.318 0-1.857.034-1.198.075m-79.198 2.815c.019.629.031.64.17.156.135-.472.246-.517 1.177-.485.86.029.926.008.403-.132-1.408-.376-1.773-.279-1.75.461M245 111.156a51.733 51.733 0 001.592 1.719c.773.802 1.047 1.236.987 1.565-.046.251-.025.329.047.174.082-.177 1.109 1.194 2.733 3.645 1.431 2.161 2.639 3.968 2.684 4.015.045.048.077-.936.072-2.187l-.01-2.274-3.652-3.125c-2.009-1.719-3.95-3.354-4.313-3.633l-.661-.508.521.609m16.838.25l-3.682.062-.807.985c-1.577 1.926-3.008 3.797-2.904 3.797.059 0 .783-.867 1.611-1.927.827-1.06 1.584-2.016 1.682-2.125.101-.112.179.44.179 1.27v1.467l-2.084 1.264c-2.052 1.245-2.337 1.352-1.823.682.144-.186.05-.118-.208.152-.68.712-.897.415 4.688 6.422 2.836 3.05 5.216 5.653 5.29 5.785.073.131-.977 2.558-2.334 5.393l-2.467 5.153-.462 4.056-.463 4.056-2.829-2.681c-1.556-1.475-3.187-3.051-3.623-3.502l-.795-.822-3.997 1.616-3.997 1.616-2.434 3.924c-1.338 2.159-2.409 3.948-2.38 3.978.03.029 1.031.252 2.225.494 1.195.243 2.316.518 2.493.611.225.119 1.188-.363 3.225-1.614 1.598-.98 2.804-1.652 2.68-1.494-1.582 2.022-5.289 7.091-5.289 7.232 0 .103.233.142.518.087.284-.054.683-.027.885.061.203.088.509.144.681.125.172-.019 1.625.142 3.229.359 3.263.44 3.07.509 3.438-1.226.424-1.997 2.463-3.856 4.817-4.391.96-.218 1.979-.455 2.266-.526.346-.086-1.184-.467-4.556-1.136-2.793-.553-5.118-1.046-5.167-1.095-.049-.049.876-.198 2.056-.331 1.18-.132 2.474-.327 2.875-.433 1.679-.443 3.564-.635 4.327-.441 1.141.29 6.905.945 7.05.8.068-.068-.455-1.642-1.161-3.498l-1.285-3.375.945-4.399c.52-2.42 1.186-6.107 1.481-8.194l.537-3.794-1.041-3.914c-.572-2.153-1.186-4.324-1.363-4.826-.178-.501-.323-1.029-.323-1.174 0-.243 4.199-3.435 4.518-3.435.234 0 1.52-.924 1.522-1.094.001-.086-.913-.135-2.03-.109-1.117.026-3.688.075-5.714.109m-43.224 1.719c0 .974.036 1.372.08.885.044-.487.044-1.283 0-1.77-.044-.487-.08-.089-.08.885m40.839 1.623c1.284 3.104 1.258 3.258-.255 1.518l-1.073-1.233v-1.614c0-.887.043-1.571.095-1.518.052.052.607 1.333 1.233 2.847m-111.444 4.106c0 3.552.029 5.035.063 3.294.035-1.74.035-4.646.001-6.458-.035-1.812-.064-.388-.064 3.164m34.982-4.583c-.001 1.031.034 1.479.078.996.044-.484.044-1.328.001-1.875-.043-.548-.079-.152-.079.879m123.517 5.562l-.05 7.437-1.093.076-1.094.077 1.1.038c1.414.05 1.311.7 1.244-7.775l-.058-7.29-.049 7.437m-87.133-4c-.347.688-.584 1.25-.527 1.25.057 0 .388-.562.735-1.25.347-.687.584-1.25.527-1.25-.057 0-.388.563-.735 1.25m-1.299 2.257c.077.201.034.259-.122.163-.157-.098-.198-.038-.117.174.069.178.015.323-.119.323-.133 0-.185.094-.114.208.071.115.024.209-.104.209s-.18.085-.115.19c.065.105 0 .238-.144.296-.202.082-.203.11-.005.122.141.009.487-.436.767-.99.368-.725.432-1.007.232-1.007-.162 0-.228.131-.159.312m-4.46 2.431c-.001 1.031.034 1.479.078.996.044-.484.044-1.328.001-1.875-.043-.548-.079-.152-.079.879m1.384 2.494l-.937.713-.129-.666-.129-.666-.028.651c-.015.358.211 1.077.503 1.598.291.522.563 1.12.603 1.33.091.475 3.053 6.158 3.156 6.056.041-.041.313-.71.606-1.487l.531-1.412-1.515-3.417c-.833-1.879-1.562-3.416-1.619-3.415-.058.001-.526.323-1.042.715m30.682.735c0 .516.04.727.09.469.05-.258.05-.68 0-.938-.05-.258-.09-.047-.09.469m-143.807-.304c0 .631 3.21 3.308 5.88 4.904 1.394.834 1.34.664.682 2.152-.548 1.238-.829 1.319-1.553.447-.213-.257-.706-.32-2.378-.304-2.07.02-2.09.025-1.08.26.996.233 1.706.939 1.864 1.854.025.144.2.555.39.913.19.357.286.709.214.781-.071.072.061.13.294.13.267 0 1.157.779 2.41 2.108 2.301 2.442 2.572 2.504 2.494.579-.101-2.484.411-2.406 3.759.571l1.973 1.756-.289 1.503a50.43 50.43 0 00-.39 2.29c-.167 1.304-2.923 5.381-5.049 7.47l-1.825 1.794-1.578.209c-1.317.175-2.144.486-5 1.878-1.882.918-4.125 1.877-4.985 2.131-.859.255-1.835.604-2.168.776-.333.172-1.504.479-2.604.683-1.099.203-4.811.937-8.248 1.63-3.438.693-11.641 2.26-18.23 3.481a2342.7 2342.7 0 00-20.833 3.964c-4.87.958-14.057 2.636-20.417 3.727a3084.205 3084.205 0 00-12.545 2.168c-.541.101-1.017.15-1.059.108-.042-.041-.092.042-.111.185-.178 1.322-.288 1.975-.377 2.239-.057.172-.14.917-.184 1.656a45.154 45.154 0 01-.217 2.448c-.172 1.375-1.811 1.498 13.032-.978 12.272-2.048 14.869-2.561 35.316-6.979 5.614-1.214 12.223-2.618 14.687-3.12 2.464-.503 6.917-1.524 9.896-2.269 2.979-.745 6.724-1.604 8.323-1.908 3.38-.642 9.015-2.732 14.489-5.373l3.23-1.558 3.673-3.557c3.427-3.319 3.71-3.651 4.234-4.97.308-.777.739-1.718.956-2.091.254-.436.509-1.591.713-3.229.174-1.403.39-2.972.48-3.487l.163-.937-1.881-2.313a208.2 208.2 0 00-2.855-3.444c-.953-1.105-.978-1.17-1.12-2.916l-.145-1.785-2.151-2.215-2.152-2.215-3.74-.63c-4.113-.693-3.988-.676-3.988-.517m26.684.096c-.006.172.234 1.156.533 2.187.298 1.031.609 2.578.691 3.438l.148 1.562.03-1.562c.025-1.267-.104-1.977-.681-3.75-.391-1.203-.716-2.047-.721-1.875m116.914 2.083c0 .516.041.727.091.469.049-.258.049-.68 0-.938-.05-.258-.091-.047-.091.469m43.23.778c.49.044 1.24.043 1.667-.002.427-.044.026-.08-.891-.08-.916.001-1.266.038-.776.082m3.334.208c.49.044 1.24.044 1.666-.001.427-.045.026-.081-.89-.08-.917.001-1.266.037-.776.081m-46.772.889c0 .516.041.727.09.469.05-.258.05-.68 0-.938-.049-.258-.09-.047-.09.469m49.995-.682c.43.045 1.133.045 1.563 0 .43-.045.078-.081-.781-.081-.86 0-1.211.036-.782.081m-81.249.786c.002.459.045.621.095.362s.048-.634-.005-.833c-.052-.199-.092.013-.09.471m84.484-.576c.49.044 1.24.043 1.667-.002.426-.044.026-.08-.891-.08-.917.001-1.266.038-.776.082m3.333.208c.49.044 1.24.044 1.667-.001.427-.045.026-.081-.891-.08-.916.001-1.266.037-.776.081m-20.69.524c-.055.144-.075 9.401-.046 20.573l.054 20.313.104-20.573c.057-11.315.078-20.573.046-20.573-.033 0-.104.117-.158.26m-124.407 1.303c.001.687.04.943.087.569a5.604 5.604 0 00-.002-1.25c-.048-.313-.086-.007-.085.681m57.488.208c.003.458.045.621.095.362s.048-.634-.004-.833c-.052-.2-.093.013-.091.471m30.834 0c.002.458.045.621.094.362.05-.259.048-.634-.004-.833-.052-.2-.093.013-.09.471m61.405 22.892c0 12.56.038 22.837.083 22.837.046 0 .843-1.417 1.771-3.149l1.688-3.149v-39.119l-1.302-.003c-.716-.001-1.513-.059-1.771-.128l-.469-.126v22.837m32.532-22.111c.028.612.039.623.116.117.069-.451.216-.577.75-.644.639-.08.635-.085-.116-.117-.756-.032-.781-.01-.75.644m-28.213-.318a7.792 7.792 0 001.458.001c.432-.045.13-.082-.672-.083-.803-.001-1.156.036-.786.082m30.525.001c.43.045 1.133.045 1.563 0 .429-.045.078-.082-.782-.082-.859 0-1.211.037-.781.082m-117.855.791c-1.484.383-2.787.641-2.896.574-.189-.117-.019 3.206.193 3.759.132.344 5.17 3.474 5.592 3.474.19 0 .544-.337.787-.748.379-.644.523-.733 1.02-.634.621.125.864-.164.59-.701-.088-.172-.31-1.437-.493-2.812-.422-3.154-.408-3.076-.602-3.386-.249-.399-1.244-.286-4.191.474m90.246-.584c.37.046 1.026.047 1.459.002.432-.045.129-.083-.673-.084-.802-.001-1.156.036-.786.082m30.844.002c.49.044 1.24.044 1.666-.001.427-.045.026-.081-.89-.08-.917.001-1.266.037-.776.081m-27.927.206c.37.046 1.026.047 1.458.002.433-.045.13-.083-.672-.084-.802-.001-1.156.036-.786.082m31.26.003c.49.044 1.24.043 1.667-.002.426-.044.026-.08-.891-.08-.917.001-1.266.038-.776.082m-133.438.889c0 .515.04.726.09.468.05-.257.05-.679 0-.937s-.09-.047-.09.469m30.408-.209c0 .401.043.565.095.365a1.691 1.691 0 000-.729c-.052-.201-.095-.037-.095.364m74.691-.474a6.66 6.66 0 001.354 0c.373-.046.068-.084-.677-.084-.744 0-1.049.038-.677.084m31.672.002c.49.044 1.24.044 1.667-.001.427-.045.026-.081-.891-.08-.916.001-1.266.037-.776.081m-28.968.206c.37.046 1.026.047 1.458.002.433-.045.13-.083-.672-.084-.802-.001-1.156.036-.786.082m32.302.002c.49.044 1.24.044 1.666-.001.427-.045.026-.081-.89-.08-.917.001-1.266.037-.776.081m-29.385.206a7.788 7.788 0 001.458.002c.432-.045.13-.083-.672-.084-.803-.001-1.156.036-.786.082m32.608.002c.43.045 1.133.045 1.563 0 .43-.045.078-.082-.781-.082-.86 0-1.211.037-.782.082m-29.692.207c.37.046 1.026.046 1.459.001.432-.045.129-.082-.673-.083-.802-.001-1.156.036-.786.082m32.927.002c.49.044 1.24.044 1.667-.001.426-.045.026-.081-.891-.08-.917.001-1.266.037-.776.081m-210.578.121c0 .06 4.882 4.5 10.849 9.866 11.114 9.995 12.926 11.424 12.562 9.912-.08-.334-.754-1.143-1.618-1.942-.815-.753-1.809-1.674-2.21-2.047l-.729-.678 1.769.129c2.242.164 2.18.108-2.121-1.93-3.176-1.504-3.636-1.793-5.313-3.339l-1.835-1.693 1.771-.02 1.771-.02-3.959-1.965c-3.705-1.84-4.085-2.084-5.949-3.816-1.822-1.695-2.094-1.872-3.224-2.107-.678-.141-1.352-.302-1.499-.358-.146-.056-.265-.052-.265.008m180.568.085c.37.046 1.026.047 1.458.002.433-.045.13-.083-.672-.084-.802-.001-1.156.036-.786.082m33.343.002c.49.044 1.24.044 1.667-.001.427-.045.026-.081-.891-.08-.916.001-1.266.037-.776.081m-234.316 2.365c.007 1.308.087 2.754.179 3.212.096.484.123-.477.063-2.292-.122-3.731-.259-4.249-.242-.92m203.89-2.159a7.788 7.788 0 001.458.002c.432-.045.13-.083-.672-.084-.803-.001-1.156.036-.786.082m33.76.003c.49.044 1.24.043 1.666-.002.427-.044.026-.08-.89-.08-.917.001-1.266.038-.776.082m-30.839.206a6.66 6.66 0 001.354 0c.372-.046.068-.084-.677-.084-.745 0-1.049.038-.677.084m34.172.002c.49.044 1.24.044 1.667-.001.426-.045.026-.081-.891-.08-.917.001-1.266.037-.776.081m-216.252.207c.375.046.937.045 1.25-.002.313-.048.007-.086-.68-.085-.688.001-.944.04-.57.087m219.372-.001c.372.047.981.047 1.354 0 .372-.046.067-.084-.677-.084-.745 0-1.05.038-.677.084m-35.056 26.204c0 14.437.025 20.313.056 13.057.03-7.257.03-19.069 0-26.25-.031-7.182-.056-1.245-.056 13.193m-124.423-25.208c.002.458.045.621.095.362s.048-.634-.005-.834c-.052-.199-.092.013-.09.472m29.787.729c0 .401.043.565.096.364.052-.2.052-.528 0-.729-.053-.2-.096-.036-.096.365m-29.575 1.041c0 .516.041.727.091.469.049-.258.049-.68 0-.937-.05-.258-.091-.047-.091.468m29.367.417c0 .401.043.565.095.365a1.696 1.696 0 000-.73c-.052-.2-.095-.036-.095.365m137.66 30.375l.104 30.563.053-30.406c.029-16.723-.018-30.476-.104-30.563-.087-.086-.11 13.597-.053 30.406m-166.822-29.021c.002.459.045.621.094.362.05-.259.048-.634-.004-.833-.052-.199-.093.013-.09.471m.212 1.771c0 .516.041.727.09.469.05-.258.05-.68 0-.938-.049-.258-.09-.047-.09.469m20.152-.009l2.812.113-1.562.299-1.563.3 2.917.576c3.844.759 4.161.764 3.102.048a20.485 20.485 0 01-1.399-1.042c-.57-.478-.694-.492-3.855-.451l-3.265.043 2.813.114m-105.355 2.926c0 .63.039.888.087.573a4.578 4.578 0 000-1.146c-.048-.315-.087-.058-.087.573m86.768 3.177c.119.143 1.063 2.37 2.099 4.948l1.884 4.687.01-2.031.01-2.031 1.823-.04 1.823-.039-1.86-.117-1.86-.117-1.89-2.751c-1.039-1.514-1.972-2.756-2.072-2.761-.1-.005-.085.109.033.252m-38.881 4.577a145.53 145.53 0 01-.862 2.062c-.35.822-.611 1.516-.58 1.541.03.025.779.108 1.664.185l1.609.141-.695-1.936a396.682 396.682 0 01-.802-2.247c-.077-.223-.173-.151-.334.254m48.044 1.147c.375.046.937.045 1.25-.002.313-.048.007-.086-.68-.085-.688.001-.944.04-.57.087m2.742.979l.904.922-.82.221a29.31 29.31 0 01-1.494.355c-.37.074-.631.177-.579.229.052.052.854-.061 1.782-.25l1.688-.345 3.865 3.588 3.865 3.587-.067-3.452c-.037-1.898-.123-3.508-.192-3.577-.11-.109-9.347-2.2-9.718-2.2-.077 0 .268.415.766.922M51.094 161.185c.2.053.528.053.729 0 .2-.052.036-.095-.365-.095-.401 0-.565.043-.364.095m-11.459 1.875c.201.053.529.053.73 0 .2-.052.036-.095-.365-.095-.401 0-.565.043-.365.095" fill="#daa36c"/><path d="M65.801 64.685c-.056.056-1.658.15-3.56.207l-3.458.106-4.86 2.205c-4.229 1.918-13.996 6.883-15.031 7.639-.378.276-.784 2.373-2.021 10.433l-.602 3.92.413 3.059c.227 1.682.902 5.068 1.501 7.524l1.088 4.465 1.555 1.264c4.598 3.736 11.764 9.78 13.104 11.051l1.533 1.456-.7.286c-2.282.932-11.249.284-14.049-1.015-2.062-.957-1.921-.93-2.429-.471-.266.241-.665.336-1.237.295-.519-.037-.795.019-.717.146.075.121-.043.161-.289.097-1.279-.334.851 1.905 4.896 5.147 3.763 3.017 5.193 4.447 3.645 3.647-1.184-.613-.622-.123.677.589 1.27.696 1.478.737 8.282 1.601l6.979.887 5.833-.135c3.209-.073 10.537-.231 16.286-.351l10.453-.217 4.506 1.053c3.948.921 4.787 1.052 6.762 1.052 1.785 0 2.311.067 2.523.324.724.872 1.005.791 1.553-.447.658-1.488.712-1.318-.682-2.152-2.806-1.677-6.201-4.556-5.821-4.937.053-.052 1.8.192 3.883.543l3.786.637 2.152 2.215 2.151 2.215.145 1.785c.142 1.746.167 1.811 1.12 2.916a208.2 208.2 0 012.855 3.444l1.881 2.313-.163.937c-.09.515-.306 2.084-.48 3.487-.204 1.638-.459 2.793-.713 3.229-.217.373-.648 1.314-.956 2.091-.524 1.319-.807 1.651-4.234 4.97l-3.673 3.557-3.23 1.558c-5.474 2.641-11.109 4.731-14.489 5.373-1.599.304-5.344 1.163-8.323 1.908-2.979.745-7.432 1.766-9.896 2.269-2.464.502-9.073 1.907-14.687 3.12-20.026 4.329-23.904 5.093-36.042 7.099-6.761 1.117-12.325 2.057-12.366 2.088-.748.579-.155 12.528.663 13.346.257.256 3.927-.6 20.212-4.717l39.824-10.063c27.021-6.827 35.558-9.218 41.354-11.584l4.063-1.658 1.458-2.17c1.826-2.717 3.405-4.436 7.007-7.628 2.425-2.149 2.865-2.632 3.003-3.303.089-.432.183-.88.209-.994l.825-3.644.776-3.435-.015-6.877c-.017-7.857-.18-9.944-1.02-13.057l-.599-2.222-1.551-1.446c-.899-.838-2.365-1.905-3.487-2.536-1.065-.6-2.144-1.298-2.397-1.551-.254-.254-1.83-1.043-3.503-1.753-3.995-1.697-4.732-1.72-8.935-.283-.206.07-.135.136.208.194.286.048.627.174.757.281.13.107.833.238 1.563.291.747.055 2.401.456 3.789.919 1.355.452 2.714.877 3.021.946.307.068 1.308.674 2.224 1.347 1.1.807 1.746 1.158 1.9 1.032.577-.473 3.862 2.634 4.874 4.608 1.442 2.813 1.827 7.996 1.162 15.623-.693 7.936-1.091 9.129-3.457 10.37-.63.33-1.683.898-2.339 1.261-1.341.742-1.619.801-1.619.344 0-.34.813-1.717 1.305-2.208.207-.207.346-1.07.451-2.794.084-1.371.275-3.903.424-5.625.177-2.04.208-3.529.088-4.271l-.285-1.764c-.055-.344-.434-2.172-.842-4.063l-.741-3.437-5.252-5.34c-2.889-2.936-5.487-5.637-5.773-6-.458-.582-.696-.684-1.979-.849-1.928-.249-8.84-.624-11.504-.624-1.592 0-2.98-.177-5.618-.716-2.865-.587-4.337-.761-8.086-.959-2.521-.133-4.671-.295-4.778-.36a274.719 274.719 0 01-3.333-2.414c-4.998-3.652-6.335-4.349-11.308-5.887-2.893-.896-3.186-1.031-3.369-1.557-.217-.622-.937-.641-1.385-.037-.165.221-.347.238-.782.073-.628-.239-.678-.141-.284.568.344.621 1.357 1.286 1.961 1.288 1.736.005 10.465 5.581 10.465 6.684 0 .327-2.828-.109-9.2-1.416l-1.804-.371-3.259-2.992-3.259-2.992.033-2.112.033-2.112-2.47-2.515c-1.358-1.384-3.427-3.784-4.596-5.334l-2.127-2.818.41-3.729c.225-2.051.458-4.023.516-4.381.127-.774 6.202-4.427 8.119-4.883.78-.186 1.304-.502 2.09-1.263.576-.558 1.102-1.015 1.169-1.015.066 0 .803-.375 1.637-.833 1.804-.992 1.849-.996 2.565-.249.917.957.522 3.093-.641 3.462-.35.112-.401.37-.442 2.259-.08 3.639-1.639 8.077-3.913 11.137l-.499.671 2.451 4.85c3.143 6.217 3.674 5.45.878-1.267-.689-1.656-1.21-3.121-1.159-3.255.052-.135.893-1.38 1.87-2.766.977-1.386 1.89-2.738 2.03-3.004 2.067-3.929 2.497-4.135 8.853-4.247 3.097-.054 5.373-.205 6.979-.463l2.382-.383 7.5.587c7.209.563 14.685 1.424 35.833 4.125 5.386.688 9.843 1.251 9.907 1.251.609.001 2.106-3.413 2.292-5.228.11-1.078.287-2.662.392-3.522.169-1.386.112-2.708-.117-2.708-.044 0-2.494-.565-5.444-1.256-6.01-1.408-30.454-5.816-41.613-7.505-3.896-.59-7.927-1.203-8.958-1.362-1.79-.278-12.391-.438-12.637-.192m97.125 10.593c.019.524.977 5.569 1.076 5.668.057.058.927-.791 1.933-1.886 1.005-1.096 1.792-2.026 1.748-2.068-.318-.307-4.765-1.909-4.757-1.714m33.382 7.073c.056.145.316 1.225.578 2.399l.477 2.135.892-1.515c1.147-1.946 1.165-1.863-.568-2.628-.849-.375-1.437-.542-1.379-.391m59.67 6.03c-.065.485-.101.897-.079.916.115.104 7.085 4.264 7.483 4.467l.472.242-.416-.424c-.692-.704-7.067-6.082-7.209-6.082-.073 0-.186.397-.251.881m-15.04.554c-1.705.454-3.905 1.229-5.293 1.864l-2.376 1.088-5.541.312c-3.047.172-5.66.333-5.806.359-.146.025 1.167 1.475 2.918 3.222l3.183 3.175 1.708-1.026c.939-.565 3.262-1.831 5.163-2.814 1.9-.984 3.627-1.895 3.836-2.026.318-.198.945.045 3.768 1.462 1.863.934 3.423 1.699 3.466 1.699.237 0-.006-1.749-.651-4.673a188.87 188.87 0 01-.73-3.378c0-.176-.91.008-3.645.736m-20.908 5.369c-.8 1.033-2.531 5.348-2.256 5.623.042.042.802-1.433 1.688-3.278 1.794-3.734 1.863-4.019.568-2.345m140.803 10.604c-9.109.261-17.711.482-19.114.492-2.449.016-2.552.034-2.552.454 0 .428.058.435 2.552.313 1.403-.069 9.724-.278 18.489-.464 15.02-.32 16.07-.367 18.23-.813l2.291-.473-1.666.008c-.917.004-9.12.221-18.23.483m-66.354 1.768a983.5 983.5 0 01-5.677.17c-.815.018-1.302.117-1.302.265 0 .24 17.099.093 18.385-.158 2.473-.481-1.798-.585-11.406-.277m-75.432 3.142c-.087.139-.239 1.755-.339 3.59-.14 2.58-.274 3.546-.593 4.267-.783 1.771-.274 1.052 1.196-1.689l1.477-2.753-.824-1.638c-1.342-2.668-.831-2.063 2.344 2.78 1.653 2.52 3.053 4.582 3.111 4.582.138.002 3.793-7.315 3.701-7.407-.102-.102-7.811-1.7-8.945-1.855-.665-.09-1.021-.051-1.128.123m36.734 4.858c-1.117 1.425-2.031 2.635-2.031 2.689 0 .054.938-.471 2.083-1.166l2.084-1.264v-1.426c0-.784-.024-1.425-.052-1.424-.029 0-.967 1.166-2.084 2.591m-135.885-.718c.447.459.86.834.918.834.057 0-.262-.375-.71-.834-.447-.458-.86-.833-.918-.833-.057 0 .262.375.71.833m1.146.899c0 .036.304.34.677.677l.677.612-.612-.677c-.57-.631-.742-.773-.742-.612m108.285 9.922c-.454.093-8.75 6.259-8.621 6.407.019.023 1.298-.28 2.842-.672 1.543-.392 3.094-.715 3.447-.718.551-.004 3.363-4.86 2.954-5.103-.029-.017-.309.021-.622.086m-72.559 3.502c.07 1.117.171 2.325.226 2.683.117.775-.163.898-2.098.919l-1.25.015 1.875 1.757c1.739 1.63 2.162 1.9 5.833 3.723l3.959 1.967-1.771.02-1.771.02 1.835 1.693c1.677 1.546 2.137 1.835 5.313 3.339 4.299 2.037 4.366 2.097 2.121 1.921-2.045-.16-2.119-.386.724 2.196 1.114 1.011 1.955 1.955 2.083 2.337.168.5.442.73 1.238 1.041 1.303.508 1.383.468 1.986-1.001l.802-1.951.3-.728.757 2.12c.914 2.557.796 2.431 1.995 2.13l.975-.246 1.317-2.628c1.127-2.249 1.581-2.908 3.137-4.561l1.82-1.932-.544-.776c-.298-.427-.865-1.233-1.258-1.79l-.714-1.014-.123.91c-.736 5.465-.742 5.485-1.339 4.797-.215-.248-.476-.45-.58-.45-.413 0-4.55-3.544-4.552-3.899-.002-.426.357-.438-4.464.148-1.881.229-3.447.39-3.479.358-.031-.032.134-1.82.367-3.973.234-2.154.374-3.966.313-4.028-.062-.061-1.828.04-3.925.226-5.114.454-4.746.492-5.591-.588-2.061-2.632-5.454-6.786-5.542-6.786-.056 0-.045.914.025 2.031m37.143 5.521l-1.719 2.448-.806 1.146 1.096-1.042c.9-.856 2.792-3.854 2.433-3.854-.05 0-.502.586-1.004 1.302m61.922 14.661c-1.689.328-5.48.886-6.128.902-.22.006-.349.061-.286.123.211.211 10.425 2.145 10.764 2.038.186-.058 1.545-.59 3.02-1.18l2.682-1.075-3.515-.455c-1.934-.25-3.844-.5-4.245-.556-.401-.055-1.432.036-2.292.203m-35 3.36c0 1.888.037 2.088.365 2.017 2.969-.65 7.925-1.835 8.125-1.944.179-.098-.018-.416-.632-1.019l-.893-.876-3.483-.137-3.482-.138v2.097m25.069-.298c-2.45 1.522-7.92 6.923-7.477 7.384.029.03 1.122-.333 2.428-.808l2.376-.863 2.188-2.925c3.118-4.168 3.377-4.523 3.299-4.507-.039.008-1.305.781-2.814 1.719" fill="#9c4c04"/></g></svg>